<?xml version="1.0" encoding="utf-8"?>
<!-- Generator: Adobe Illustrator 21.1.0, SVG Export Plug-In . SVG Version: 6.00 Build 0)  -->
<svg version="1.1" id="Capa_1" xmlns="http://www.w3.org/2000/svg" xmlns:xlink="http://www.w3.org/1999/xlink" x="0px" y="0px"
	 viewBox="0 0 512 512" style="enable-background:new 0 0 512 512;" xml:space="preserve">
<style type="text/css">
	.st0{fill:#D80027;}
</style>
<g>
	<g>
		<polygon class="st0" points="300.9,386.3 171,256 301.1,125.7 289.2,114.3 152,250.3 152,261.7 289.2,397.7 		"/>
		<path class="st0" d="M437,437c48.4-48.3,75-112.6,75-181c0-68.4-26.6-132.7-75-181C388.7,26.6,324.4,0,256,0c0,0,0,0,0,0
			C187.6,0,123.3,26.6,75,75C26.6,123.3,0,187.6,0,256c0,68.4,26.6,132.7,75,181s112.6,75,181,75c0,0,0,0,0,0
			C324.4,512,388.7,485.4,437,437z M496,256c0,64.1-25,124.4-70.3,169.7C380.4,471,320.1,496,256,496c0,0,0,0,0,0h0
			c-64.1,0-124.4-25-169.7-70.3S16,320.1,16,256c0-64.1,25-124.4,70.3-169.7C131.6,41,191.9,16,256,16c0,0,0,0,0,0
			c64.1,0,124.4,25,169.7,70.3C471,131.6,496,191.9,496,256z"/>
	</g>
</g>
</svg>
